<mxfile host="app.diagrams.net" agent="Mozilla/5.0 (Windows NT 10.0; Win64; x64) AppleWebKit/537.36 (KHTML, like Gecko) Chrome/131.0.0.0 Safari/537.36 Edg/131.0.0.0" version="25.0.1">
  <diagram id="prtHgNgQTEPvFCAcTncT" name="Page-1">
    <mxGraphModel dx="678" dy="429" grid="1" gridSize="10" guides="1" tooltips="1" connect="1" arrows="1" fold="1" page="1" pageScale="1" pageWidth="827" pageHeight="1169" math="0" shadow="0">
      <root>
        <mxCell id="0" />
        <mxCell id="1" parent="0" />
        <mxCell id="q7ZRlwXWSosexZtV8L_0-35" value="" style="group" vertex="1" connectable="0" parent="1">
          <mxGeometry x="220" y="140" width="460.68363636363637" height="480.8863636363635" as="geometry" />
        </mxCell>
        <mxCell id="q7ZRlwXWSosexZtV8L_0-21" value="" style="group;rotation=0;" vertex="1" connectable="0" parent="q7ZRlwXWSosexZtV8L_0-35">
          <mxGeometry x="20" y="-80" width="440.68363636363637" height="560" as="geometry" />
        </mxCell>
        <mxCell id="q7ZRlwXWSosexZtV8L_0-29" value="" style="group;rotation=0;" vertex="1" connectable="0" parent="q7ZRlwXWSosexZtV8L_0-21">
          <mxGeometry x="5.263636363636364" y="110.88636363636363" width="435.42" height="449.1136363636364" as="geometry" />
        </mxCell>
        <mxCell id="q7ZRlwXWSosexZtV8L_0-16" value="บันทึกในแบบฟอร์มกระดาษ" style="rounded=1;whiteSpace=wrap;html=1;rotation=0;" vertex="1" parent="q7ZRlwXWSosexZtV8L_0-29">
          <mxGeometry x="26.31818181818182" y="159.3409090909091" width="92.92592592592592" height="50.20408163265306" as="geometry" />
        </mxCell>
        <mxCell id="q7ZRlwXWSosexZtV8L_0-28" value="" style="group;rotation=0;" vertex="1" connectable="0" parent="q7ZRlwXWSosexZtV8L_0-29">
          <mxGeometry x="-10" y="-10.89" width="445.42" height="460.00363636363636" as="geometry" />
        </mxCell>
        <mxCell id="q7ZRlwXWSosexZtV8L_0-2" value="" style="rounded=0;whiteSpace=wrap;html=1;rotation=0;" vertex="1" parent="q7ZRlwXWSosexZtV8L_0-28">
          <mxGeometry y="34.07" width="150" height="415.93" as="geometry" />
        </mxCell>
        <mxCell id="q7ZRlwXWSosexZtV8L_0-6" value="" style="rounded=0;whiteSpace=wrap;html=1;rotation=0;" vertex="1" parent="q7ZRlwXWSosexZtV8L_0-28">
          <mxGeometry x="149.15" y="35.99" width="148.25" height="414.01" as="geometry" />
        </mxCell>
        <mxCell id="q7ZRlwXWSosexZtV8L_0-34" style="edgeStyle=orthogonalEdgeStyle;rounded=0;orthogonalLoop=1;jettySize=auto;html=1;" edge="1" parent="q7ZRlwXWSosexZtV8L_0-28" source="q7ZRlwXWSosexZtV8L_0-5" target="q7ZRlwXWSosexZtV8L_0-13">
          <mxGeometry relative="1" as="geometry" />
        </mxCell>
        <mxCell id="q7ZRlwXWSosexZtV8L_0-5" value="แจ้งแอตมินเพื่อยืมพัสดุ" style="rounded=1;whiteSpace=wrap;html=1;rotation=0;" vertex="1" parent="q7ZRlwXWSosexZtV8L_0-28">
          <mxGeometry x="25.269318181818186" y="91.18406818181819" width="96.0234090909091" height="53.98898454545455" as="geometry" />
        </mxCell>
        <mxCell id="q7ZRlwXWSosexZtV8L_0-8" value="ผู้ยืม" style="rounded=0;whiteSpace=wrap;html=1;rotation=0;" vertex="1" parent="q7ZRlwXWSosexZtV8L_0-28">
          <mxGeometry width="148.24666666666667" height="35.991020408163266" as="geometry" />
        </mxCell>
        <mxCell id="q7ZRlwXWSosexZtV8L_0-9" value="Admin" style="rounded=0;whiteSpace=wrap;html=1;rotation=0;" vertex="1" parent="q7ZRlwXWSosexZtV8L_0-28">
          <mxGeometry x="148.58359090909093" width="148.24666666666667" height="35.991020408163266" as="geometry" />
        </mxCell>
        <mxCell id="q7ZRlwXWSosexZtV8L_0-10" value="ระบบ" style="rounded=0;whiteSpace=wrap;html=1;rotation=0;" vertex="1" parent="q7ZRlwXWSosexZtV8L_0-28">
          <mxGeometry x="297.16718181818186" width="148.24666666666667" height="35.991020408163266" as="geometry" />
        </mxCell>
        <mxCell id="q7ZRlwXWSosexZtV8L_0-12" value="" style="rounded=0;whiteSpace=wrap;html=1;rotation=0;" vertex="1" parent="q7ZRlwXWSosexZtV8L_0-28">
          <mxGeometry x="297.17" y="36.07" width="148.25" height="413.93" as="geometry" />
        </mxCell>
        <mxCell id="q7ZRlwXWSosexZtV8L_0-13" value="แอตมินรับแจ้ง" style="rounded=1;whiteSpace=wrap;html=1;rotation=0;" vertex="1" parent="q7ZRlwXWSosexZtV8L_0-28">
          <mxGeometry x="173.85290909090912" y="91.18406818181819" width="98.83111111111111" height="53.9865306122449" as="geometry" />
        </mxCell>
        <mxCell id="q7ZRlwXWSosexZtV8L_0-14" value="แอตมินบันทึกเข้าระบบ" style="rounded=1;whiteSpace=wrap;html=1;rotation=0;" vertex="1" parent="q7ZRlwXWSosexZtV8L_0-28">
          <mxGeometry x="321.8819090909091" y="170.34950000000003" width="98.83111111111111" height="53.9865306122449" as="geometry" />
        </mxCell>
        <mxCell id="q7ZRlwXWSosexZtV8L_0-19" value="จัดเตรียมพัสดุส่งมอบ" style="rounded=1;whiteSpace=wrap;html=1;rotation=0;" vertex="1" parent="q7ZRlwXWSosexZtV8L_0-28">
          <mxGeometry x="177.96522727272728" y="276.0238636363636" width="98.83111111111111" height="53.9865306122449" as="geometry" />
        </mxCell>
        <mxCell id="q7ZRlwXWSosexZtV8L_0-20" value="ส่งมอบพัสดุ" style="rounded=1;whiteSpace=wrap;html=1;rotation=0;" vertex="1" parent="q7ZRlwXWSosexZtV8L_0-28">
          <mxGeometry x="173.8494763636364" y="346.01772727272726" width="107.06703703703704" height="53.9865306122449" as="geometry" />
        </mxCell>
        <mxCell id="q7ZRlwXWSosexZtV8L_0-32" style="edgeStyle=orthogonalEdgeStyle;rounded=0;orthogonalLoop=1;jettySize=auto;html=1;exitX=0.5;exitY=1;exitDx=0;exitDy=0;entryX=0.5;entryY=0;entryDx=0;entryDy=0;" edge="1" parent="q7ZRlwXWSosexZtV8L_0-28" source="q7ZRlwXWSosexZtV8L_0-11" target="q7ZRlwXWSosexZtV8L_0-5">
          <mxGeometry relative="1" as="geometry" />
        </mxCell>
        <mxCell id="q7ZRlwXWSosexZtV8L_0-11" value="" style="ellipse;whiteSpace=wrap;html=1;aspect=fixed;strokeColor=#333333;fillColor=#2c2626;rotation=0;" vertex="1" parent="q7ZRlwXWSosexZtV8L_0-28">
          <mxGeometry x="62.6679090909091" y="40.080909090909095" width="23.619107142857143" height="23.619107142857143" as="geometry" />
        </mxCell>
        <mxCell id="q7ZRlwXWSosexZtV8L_0-22" value="รับพัสดุ" style="rounded=1;whiteSpace=wrap;html=1;rotation=0;" vertex="1" parent="q7ZRlwXWSosexZtV8L_0-28">
          <mxGeometry x="19.639440454545458" y="330.00772727272727" width="107.06703703703704" height="53.9865306122449" as="geometry" />
        </mxCell>
        <mxCell id="q7ZRlwXWSosexZtV8L_0-36" value="บันทึกเข้าระบบแบบฟอร์ม" style="rounded=1;whiteSpace=wrap;html=1;rotation=0;" vertex="1" parent="q7ZRlwXWSosexZtV8L_0-28">
          <mxGeometry x="27.87434409090911" y="170.34556818181818" width="98.83111111111111" height="53.9865306122449" as="geometry" />
        </mxCell>
        <mxCell id="q7ZRlwXWSosexZtV8L_0-39" value="" style="group" vertex="1" connectable="0" parent="q7ZRlwXWSosexZtV8L_0-28">
          <mxGeometry x="56.666363636363656" y="400.00363636363636" width="26.99000000000001" height="26.99000000000001" as="geometry" />
        </mxCell>
        <mxCell id="q7ZRlwXWSosexZtV8L_0-38" value="" style="ellipse;whiteSpace=wrap;html=1;aspect=fixed;" vertex="1" parent="q7ZRlwXWSosexZtV8L_0-39">
          <mxGeometry width="26.99" height="26.99" as="geometry" />
        </mxCell>
        <mxCell id="q7ZRlwXWSosexZtV8L_0-37" value="" style="ellipse;whiteSpace=wrap;html=1;aspect=fixed;strokeColor=#333333;fillColor=#2c2626;rotation=0;" vertex="1" parent="q7ZRlwXWSosexZtV8L_0-39">
          <mxGeometry x="5.6200000000000045" y="5.6200000000000045" width="16.38" height="16.38" as="geometry" />
        </mxCell>
        <mxCell id="q7ZRlwXWSosexZtV8L_0-40" value="" style="endArrow=none;html=1;rounded=0;exitX=-0.001;exitY=0.491;exitDx=0;exitDy=0;exitPerimeter=0;" edge="1" parent="q7ZRlwXWSosexZtV8L_0-28">
          <mxGeometry width="50" height="50" relative="1" as="geometry">
            <mxPoint x="-8.526512829121202e-14" y="261.29162999999994" as="sourcePoint" />
            <mxPoint x="444.8863636363636" y="260.00363636363636" as="targetPoint" />
          </mxGeometry>
        </mxCell>
      </root>
    </mxGraphModel>
  </diagram>
</mxfile>
